# xmcd CD database file
#
# Track frame offsets:
#	150
#	30835
#	36052
#	57480
#
# Disc length: 1114 seconds
#
# Revision: 0
# Processed by: cddbd v1.5PL3 Copyright (c) Steve Scherf et al.
# Submitted via: CDex 1.50Beta7
#
DISCID=27045804
DTITLE=ROUAGE - 胸に降る雨、胸に咲く花。
DYEAR=1999
DGENRE=Rock
TTITLE0=胸に降る雨、胸に咲く花。
TTITLE1=視界／。
TTITLE2=進化論。
TTITLE3=うわのそら remix version
EXTD=YEAR: 1999
EXTT0=
EXTT1=
EXTT2=
EXTT3=
PLAYORDER=
